<svg width="500" height="500" viewBox="0 0 500 500" fill="none" xmlns="http://www.w3.org/2000/svg">
<rect x="500" y="500" width="500" height="500" rx="250" transform="rotate(-180 500 500)" fill="#1371FF"/>
<path d="M101.102 180.262L101.103 180.263L118.028 209.049L118.031 209.054C122.483 216.607 132.2 219.255 139.845 214.57L139.855 214.564C147.336 209.956 149.68 200.089 145.251 192.54L145.249 192.535L134.93 174.987L134.928 174.984C133.092 171.866 135.419 168.204 138.531 168.204L360.469 168.204C363.584 168.204 365.91 171.863 364.072 174.984L364.07 174.987L253.102 363.715L253.1 363.717C251.452 366.525 247.548 366.524 245.9 363.717L245.898 363.715L189.863 268.419L189.862 268.417C185.386 260.812 175.6 258.25 168.039 262.903L168.036 262.904C160.555 267.513 158.209 277.382 162.648 284.932L162.648 284.932L224.89 390.792C236.02 409.722 262.963 409.75 274.11 390.792L397.898 180.263L397.898 180.262C409.23 160.979 395.748 136 373.288 136L125.712 136C103.27 136 89.7632 160.967 101.102 180.262Z" fill="white" stroke="white" stroke-width="10"/>
</svg>
