<svg width="485" height="146" viewBox="0 0 485 146" fill="none" xmlns="http://www.w3.org/2000/svg">
<path d="M174.4 116V102.56L173.8 100.04V77.12C173.8 72.24 172.36 68.48 169.48 65.84C166.68 63.12 162.44 61.76 156.76 61.76C153 61.76 149.32 62.4 145.72 63.68C142.12 64.88 139.08 66.52 136.6 68.6L131.8 59.96C135.08 57.32 139 55.32 143.56 53.96C148.2 52.52 153.04 51.8 158.08 51.8C166.8 51.8 173.52 53.92 178.24 58.16C182.96 62.4 185.32 68.88 185.32 77.6V116H174.4ZM153.52 116.72C148.8 116.72 144.64 115.92 141.04 114.32C137.52 112.72 134.8 110.52 132.88 107.72C130.96 104.84 130 101.6 130 98C130 94.56 130.8 91.44 132.4 88.64C134.08 85.84 136.76 83.6 140.44 81.92C144.2 80.24 149.24 79.4 155.56 79.4H175.72V87.68H156.04C150.28 87.68 146.4 88.64 144.4 90.56C142.4 92.48 141.4 94.8 141.4 97.52C141.4 100.64 142.64 103.16 145.12 105.08C147.6 106.92 151.04 107.84 155.44 107.84C159.76 107.84 163.52 106.88 166.72 104.96C170 103.04 172.36 100.24 173.8 96.56L176.08 104.48C174.56 108.24 171.88 111.24 168.04 113.48C164.2 115.64 159.36 116.72 153.52 116.72ZM246.359 116.72C239.879 116.72 234.079 115.32 228.959 112.52C223.919 109.72 219.959 105.88 217.079 101C214.199 96.12 212.759 90.52 212.759 84.2C212.759 77.88 214.199 72.28 217.079 67.4C219.959 62.52 223.919 58.72 228.959 56C234.079 53.2 239.879 51.8 246.359 51.8C252.119 51.8 257.239 52.96 261.719 55.28C266.279 57.52 269.799 60.88 272.279 65.36L263.519 71C261.439 67.88 258.879 65.6 255.839 64.16C252.879 62.64 249.679 61.88 246.239 61.88C242.079 61.88 238.359 62.8 235.079 64.64C231.799 66.48 229.199 69.08 227.279 72.44C225.359 75.72 224.399 79.64 224.399 84.2C224.399 88.76 225.359 92.72 227.279 96.08C229.199 99.44 231.799 102.04 235.079 103.88C238.359 105.72 242.079 106.64 246.239 106.64C249.679 106.64 252.879 105.92 255.839 104.48C258.879 102.96 261.439 100.64 263.519 97.52L272.279 103.04C269.799 107.44 266.279 110.84 261.719 113.24C257.239 115.56 252.119 116.72 246.359 116.72ZM338.673 116V102.56L338.073 100.04V77.12C338.073 72.24 336.633 68.48 333.753 65.84C330.953 63.12 326.713 61.76 321.033 61.76C317.273 61.76 313.593 62.4 309.993 63.68C306.393 64.88 303.353 66.52 300.873 68.6L296.073 59.96C299.353 57.32 303.273 55.32 307.833 53.96C312.473 52.52 317.313 51.8 322.353 51.8C331.073 51.8 337.793 53.92 342.513 58.16C347.233 62.4 349.593 68.88 349.593 77.6V116H338.673ZM317.793 116.72C313.073 116.72 308.913 115.92 305.313 114.32C301.793 112.72 299.073 110.52 297.153 107.72C295.233 104.84 294.273 101.6 294.273 98C294.273 94.56 295.073 91.44 296.673 88.64C298.353 85.84 301.033 83.6 304.713 81.92C308.473 80.24 313.513 79.4 319.833 79.4H339.993V87.68H320.313C314.553 87.68 310.673 88.64 308.673 90.56C306.673 92.48 305.673 94.8 305.673 97.52C305.673 100.64 306.913 103.16 309.393 105.08C311.873 106.92 315.313 107.84 319.713 107.84C324.033 107.84 327.793 106.88 330.993 104.96C334.273 103.04 336.633 100.24 338.073 96.56L340.353 104.48C338.833 108.24 336.153 111.24 332.313 113.48C328.473 115.64 323.633 116.72 317.793 116.72ZM382.912 116V26.96H394.432V116H382.912ZM431.188 140C428.148 140 425.188 139.48 422.308 138.44C419.428 137.48 416.948 136.04 414.868 134.12L419.788 125.48C421.388 127 423.148 128.16 425.068 128.96C426.988 129.76 429.028 130.16 431.188 130.16C433.988 130.16 436.308 129.44 438.148 128C439.988 126.56 441.708 124 443.308 120.32L447.268 111.56L448.468 110.12L473.428 52.4H484.708L453.868 122.36C452.028 126.84 449.948 130.36 447.628 132.92C445.388 135.48 442.908 137.28 440.188 138.32C437.468 139.44 434.468 140 431.188 140ZM446.308 118.04L417.268 52.4H429.268L453.988 109.04L446.308 118.04Z" fill="#3787FF"/>
<rect y="15" width="116" height="116" rx="26" fill="#3787FF"/>
<path d="M57.6545 108.778C54.572 108.778 51.7807 106.956 50.5393 104.135L21.5869 38.3338C21.3104 37.7053 21.7706 37 22.4571 37H32.0743L57.9035 95.9601L83.9592 37H92.7579C93.4439 37 93.9042 37.7044 93.6286 38.3327L64.7735 104.126C63.5341 106.952 60.7404 108.778 57.6545 108.778Z" fill="white"/>
</svg>
